# Blender 3.4.1
# www.blender.org
mtllib codelock.mtl
o Cube
v 0.197109 3.273419 -2.288472
v 0.197109 -3.273419 -2.288472
v 0.197109 3.273419 2.393256
v 0.197109 -3.273419 2.393256
v -0.197109 3.273419 -2.340864
v -0.197109 -3.273419 -2.340864
v -0.197109 3.273419 2.340864
v -0.197109 -3.273419 2.340864
v 0.119207 0.366070 1.853717
v 0.119207 1.372118 1.853717
v 0.119207 0.366070 0.847669
v 0.119207 1.372118 0.847669
v 0.428991 0.366070 1.853717
v 0.436297 1.378057 1.856680
v 0.428991 0.366070 0.847669
v 0.428991 1.372118 0.847669
v 0.114517 0.360760 1.750925
v 0.114517 1.366808 1.750925
v 0.114517 0.360760 0.744877
v 0.114517 1.366808 0.744877
v 0.424301 0.360760 1.750925
v 0.424301 1.366808 1.750925
v 0.424301 0.360760 0.744877
v 0.424301 1.366808 0.744877
v 0.119207 0.366070 0.486064
v 0.119207 1.372118 0.486064
v 0.119207 0.366070 -0.519984
v 0.119207 1.372118 -0.519984
v 0.428991 0.366070 0.486064
v 0.428991 1.372118 0.486064
v 0.428991 0.366070 -0.519984
v 0.428991 1.372118 -0.519984
v 0.119207 0.366070 -0.807553
v 0.119207 1.372118 -0.807553
v 0.119207 0.366070 -1.813601
v 0.119207 1.372118 -1.813601
v 0.428991 0.366070 -0.807553
v 0.428991 1.372118 -0.807553
v 0.428991 0.366070 -1.813601
v 0.428991 1.372118 -1.813601
v 0.119207 -0.953060 1.853717
v 0.119207 0.052988 1.853717
v 0.119207 -0.953060 0.847669
v 0.119207 0.052988 0.847669
v 0.428991 -0.953060 1.853717
v 0.428991 0.052988 1.853717
v 0.428991 -0.953060 0.847669
v 0.428991 0.052988 0.847669
v 0.119207 -0.953060 0.486064
v 0.119207 0.052988 0.486064
v 0.119207 -0.953060 -0.519984
v 0.119207 0.052988 -0.519984
v 0.428991 -0.953060 0.486064
v 0.428991 0.052988 0.486064
v 0.428991 -0.953060 -0.519984
v 0.428991 0.052988 -0.519984
v 0.119207 -0.953060 -0.807553
v 0.119207 0.052988 -0.807553
v 0.119207 -0.953060 -1.813601
v 0.119207 0.052988 -1.813601
v 0.428991 -0.953060 -0.807553
v 0.428991 0.052988 -0.807553
v 0.428991 -0.953060 -1.813601
v 0.428991 0.052988 -1.813601
v 0.119207 -2.333878 1.853717
v 0.119207 -1.327830 1.853717
v 0.119207 -2.333878 0.847669
v 0.119207 -1.327830 0.847669
v 0.428991 -2.333878 1.853717
v 0.428991 -1.327830 1.853717
v 0.428991 -2.333878 0.847669
v 0.428991 -1.327830 0.847669
v 0.119207 -2.333878 0.486064
v 0.119207 -1.327830 0.486064
v 0.119207 -2.333878 -0.519984
v 0.119207 -1.327830 -0.519984
v 0.428991 -2.333878 0.486064
v 0.428991 -1.327830 0.486064
v 0.428991 -2.333878 -0.519984
v 0.428991 -1.327830 -0.519984
v 0.119207 -2.333878 -0.807553
v 0.119207 -1.327830 -0.807553
v 0.119207 -2.333878 -1.813601
v 0.119207 -1.327830 -1.813601
v 0.428991 -2.333878 -0.807553
v 0.428991 -1.327830 -0.807553
v 0.428991 -2.333878 -1.813601
v 0.428991 -1.327830 -1.813601
v 0.225650 2.773071 -1.763609
v 0.225650 1.933334 -1.763609
v 0.225650 2.773071 1.834883
v 0.225650 1.933334 1.834883
v -0.052980 2.773071 -1.763609
v -0.052980 1.933334 -1.763609
v -0.052980 2.773071 1.834883
v -0.052980 1.933334 1.834883
v -0.197109 -3.931047 -2.340864
v -0.197109 -3.931047 2.340864
v 0.197109 -3.931047 -2.288472
v 0.197109 -3.931047 2.393256
v 0.119207 -3.667381 1.853717
v 0.119207 -2.661333 1.853717
v 0.119207 -3.667381 0.847669
v 0.119207 -2.661333 0.847669
v 0.428991 -3.667381 1.853717
v 0.428991 -2.661333 1.853717
v 0.428991 -3.667381 0.847669
v 0.428991 -2.661333 0.847669
v 0.119207 -3.667381 0.486064
v 0.119207 -2.661333 0.486064
v 0.119207 -3.667381 -0.519984
v 0.119207 -2.661333 -0.519984
v 0.428991 -3.667381 0.486064
v 0.428991 -2.661333 0.486064
v 0.428991 -3.667381 -0.519984
v 0.428991 -2.661333 -0.519984
v 0.119207 -3.667381 -0.807553
v 0.119207 -2.661333 -0.807553
v 0.119207 -3.667381 -1.813601
v 0.119207 -2.661333 -1.813601
v 0.428991 -3.667381 -0.807553
v 0.428991 -2.661333 -0.807553
v 0.428991 -3.667381 -1.813601
v 0.428991 -2.661333 -1.813601
v -0.197109 -4.278704 -2.340864
v -0.197109 -4.278704 2.340864
v 0.197109 -4.278704 -2.288472
v 0.197109 -4.278704 2.393256
vn -0.0000 1.0000 -0.0000
vn -0.1317 -0.0000 0.9913
vn 0.1317 -0.0000 -0.9913
vn 1.0000 -0.0000 -0.0000
vn -0.0000 -0.0000 -1.0000
vn 1.0000 -0.0036 -0.0036
vn -0.0047 -0.0015 1.0000
vn -0.0000 -1.0000 -0.0000
vn -0.0095 1.0000 -0.0029
vn -0.0000 -0.0000 1.0000
vt 0.426301 0.065048
vt 0.379297 0.065048
vt 0.426301 0.112051
vt 0.379297 0.112051
vt 0.473304 0.065048
vt 0.426301 0.018044
vt 0.379297 0.018044
vt 0.473304 0.112051
vt 0.426301 0.159054
vt 0.379297 0.159054
vt 0.194535 0.712110
vt 0.289851 0.807425
vt 0.099220 0.712110
vt 0.003905 0.807425
vt 0.194535 0.998056
vt 0.289851 0.902741
vt 0.099220 0.998056
vt 0.003905 0.902741
vt 0.194535 0.807425
vt 0.099220 0.807425
vt 0.194535 0.902741
vt 0.099220 0.902741
vt 0.581454 0.807425
vt 0.486138 0.712110
vt 0.390823 0.712110
vt 0.295507 0.807425
vt 0.581454 0.902741
vt 0.486138 0.998056
vt 0.390823 0.998056
vt 0.295507 0.902741
vt 0.486138 0.807425
vt 0.390823 0.807425
vt 0.486138 0.902741
vt 0.390823 0.902741
vt 0.873056 0.807425
vt 0.777741 0.712110
vt 0.682425 0.712110
vt 0.587110 0.807425
vt 0.873056 0.902741
vt 0.777741 0.998056
vt 0.682425 0.998056
vt 0.587110 0.902741
vt 0.777741 0.807425
vt 0.682425 0.807425
vt 0.777741 0.902741
vt 0.682425 0.902741
vt 0.304040 0.500483
vt 0.399356 0.595798
vt 0.208725 0.500483
vt 0.113409 0.595798
vt 0.304040 0.786429
vt 0.399356 0.691114
vt 0.208725 0.786429
vt 0.113409 0.691114
vt 0.304040 0.595798
vt 0.208725 0.595798
vt 0.304040 0.691114
vt 0.208725 0.691114
vt 0.692189 0.594568
vt 0.596873 0.499252
vt 0.501558 0.499252
vt 0.406243 0.594568
vt 0.692189 0.689883
vt 0.596873 0.785199
vt 0.501558 0.785199
vt 0.406243 0.689883
vt 0.596873 0.594568
vt 0.501558 0.594568
vt 0.596873 0.689883
vt 0.501558 0.689883
vt 0.985022 0.595798
vt 0.889707 0.500483
vt 0.794391 0.500483
vt 0.699076 0.595798
vt 0.985022 0.691114
vt 0.889707 0.786429
vt 0.794391 0.786429
vt 0.699076 0.691114
vt 0.889707 0.595798
vt 0.794391 0.595798
vt 0.889707 0.691114
vt 0.794391 0.691114
vt 0.200687 0.297468
vt 0.296003 0.392784
vt 0.105372 0.297468
vt 0.010056 0.392784
vt 0.200687 0.583414
vt 0.296003 0.488099
vt 0.105372 0.583414
vt 0.010056 0.488099
vt 0.200687 0.392784
vt 0.105372 0.392784
vt 0.200687 0.488099
vt 0.105372 0.488099
vt 0.590066 0.392784
vt 0.494751 0.297468
vt 0.399435 0.297468
vt 0.304120 0.392784
vt 0.590066 0.488099
vt 0.494751 0.583414
vt 0.399435 0.583414
vt 0.304120 0.488099
vt 0.494751 0.392784
vt 0.399435 0.392784
vt 0.494751 0.488099
vt 0.399435 0.488099
vt 0.885360 0.391553
vt 0.790045 0.296238
vt 0.694729 0.296238
vt 0.599414 0.391553
vt 0.885360 0.486869
vt 0.790045 0.582184
vt 0.694729 0.582184
vt 0.599414 0.486869
vt 0.790045 0.391553
vt 0.694729 0.391553
vt 0.790045 0.486869
vt 0.694729 0.486869
vt 0.051737 0.103253
vt 0.652139 0.028600
vt 0.091328 0.142845
vt 0.748968 0.028600
vt 0.130919 0.142845
vt 0.170510 0.103253
vt 0.051737 0.063662
vt 0.091328 0.024071
vt 0.652139 0.125429
vt 0.130919 0.024071
vt 0.748968 0.125429
vt 0.170510 0.063662
vt 0.091328 0.103253
vt 0.130919 0.103253
vt 0.091328 0.063662
vt 0.130919 0.063662
vt 0.379297 0.018044
vt 0.379297 0.159054
vt 0.379297 0.065048
vt 0.379297 0.112051
vt 0.302810 0.099375
vt 0.398125 0.194691
vt 0.207494 0.099375
vt 0.112179 0.194691
vt 0.302810 0.385321
vt 0.398125 0.290006
vt 0.207494 0.385321
vt 0.112179 0.290006
vt 0.302810 0.194691
vt 0.207494 0.194691
vt 0.302810 0.290006
vt 0.207494 0.290006
vt 0.694650 0.193460
vt 0.599334 0.098145
vt 0.504019 0.098145
vt 0.408703 0.193460
vt 0.694650 0.288776
vt 0.599334 0.384091
vt 0.504019 0.384091
vt 0.408703 0.288776
vt 0.599334 0.193460
vt 0.504019 0.193460
vt 0.599334 0.288776
vt 0.504019 0.288776
vt 0.988713 0.192230
vt 0.893398 0.096914
vt 0.798082 0.096914
vt 0.702767 0.192230
vt 0.988713 0.287545
vt 0.893398 0.382861
vt 0.798082 0.382861
vt 0.702767 0.287545
vt 0.893398 0.192230
vt 0.798082 0.192230
vt 0.893398 0.287545
vt 0.798082 0.287545
vt 0.379297 0.018044
vt 0.332294 0.065048
vt 0.332294 0.112051
vt 0.379297 0.159054
vt 0.379297 0.065048
vt 0.379297 0.112051
s 0
usemtl Material
f 1/1/1 5/5/1 7/8/1 3/3/1
f 4/4/2 3/3/2 7/9/2 8/10/2
f 6/7/3 2/2/3 99/137/3 97/135/3
f 2/2/4 1/1/4 3/3/4 4/4/4
f 6/7/3 5/6/3 1/1/3 2/2/3
f 11/15/5 12/17/5 16/22/5 15/21/5
f 15/21/6 16/22/6 14/20/6 13/19/6
f 13/19/7 14/20/7 10/13/7 9/11/7
f 11/16/8 15/21/8 13/19/8 9/12/8
f 16/22/9 12/18/9 10/14/9 14/20/9
f 27/27/8 31/33/8 29/31/8 25/23/8
f 27/28/5 28/29/5 32/34/5 31/33/5
f 29/31/10 30/32/10 26/25/10 25/24/10
f 32/34/1 28/30/1 26/26/1 30/32/1
f 31/33/4 32/34/4 30/32/4 29/31/4
f 35/39/8 39/45/8 37/43/8 33/35/8
f 35/40/5 36/41/5 40/46/5 39/45/5
f 37/43/10 38/44/10 34/37/10 33/36/10
f 40/46/1 36/42/1 34/38/1 38/44/1
f 39/45/4 40/46/4 38/44/4 37/43/4
f 43/51/5 44/53/5 48/58/5 47/57/5
f 47/57/4 48/58/4 46/56/4 45/55/4
f 45/55/10 46/56/10 42/49/10 41/47/10
f 43/52/8 47/57/8 45/55/8 41/48/8
f 48/58/1 44/54/1 42/50/1 46/56/1
f 51/63/8 55/69/8 53/67/8 49/59/8
f 51/64/5 52/65/5 56/70/5 55/69/5
f 53/67/10 54/68/10 50/61/10 49/60/10
f 56/70/1 52/66/1 50/62/1 54/68/1
f 55/69/4 56/70/4 54/68/4 53/67/4
f 59/75/8 63/81/8 61/79/8 57/71/8
f 59/76/5 60/77/5 64/82/5 63/81/5
f 61/79/10 62/80/10 58/73/10 57/72/10
f 64/82/1 60/78/1 58/74/1 62/80/1
f 63/81/4 64/82/4 62/80/4 61/79/4
f 67/87/5 68/89/5 72/94/5 71/93/5
f 71/93/4 72/94/4 70/92/4 69/91/4
f 69/91/10 70/92/10 66/85/10 65/83/10
f 67/88/8 71/93/8 69/91/8 65/84/8
f 72/94/1 68/90/1 66/86/1 70/92/1
f 75/99/8 79/105/8 77/103/8 73/95/8
f 75/100/5 76/101/5 80/106/5 79/105/5
f 77/103/10 78/104/10 74/97/10 73/96/10
f 80/106/1 76/102/1 74/98/1 78/104/1
f 79/105/4 80/106/4 78/104/4 77/103/4
f 83/111/8 87/117/8 85/115/8 81/107/8
f 83/112/5 84/113/5 88/118/5 87/117/5
f 85/115/10 86/116/10 82/109/10 81/108/10
f 88/118/1 84/114/1 82/110/1 86/116/1
f 87/117/4 88/118/4 86/116/4 85/115/4
f 91/125/1 89/119/1 93/131/1 95/133/1
f 91/126/10 95/133/10 96/134/10 92/128/10
f 89/120/4 91/127/4 92/129/4 90/122/4
f 93/131/5 89/121/5 90/123/5 94/132/5
f 96/134/8 94/132/8 90/124/8 92/130/8
f 97/135/3 99/137/3 127/179/3 125/175/3
f 4/4/2 8/10/2 98/136/2 100/138/2
f 2/2/4 4/4/4 100/138/4 99/137/4
f 103/143/5 104/145/5 108/150/5 107/149/5
f 107/149/4 108/150/4 106/148/4 105/147/4
f 105/147/10 106/148/10 102/141/10 101/139/10
f 103/144/8 107/149/8 105/147/8 101/140/8
f 108/150/1 104/146/1 102/142/1 106/148/1
f 111/155/8 115/161/8 113/159/8 109/151/8
f 111/156/5 112/157/5 116/162/5 115/161/5
f 113/159/10 114/160/10 110/153/10 109/152/10
f 116/162/1 112/158/1 110/154/1 114/160/1
f 115/161/4 116/162/4 114/160/4 113/159/4
f 119/167/8 123/173/8 121/171/8 117/163/8
f 119/168/5 120/169/5 124/174/5 123/173/5
f 121/171/10 122/172/10 118/165/10 117/164/10
f 124/174/1 120/170/1 118/166/1 122/172/1
f 123/173/4 124/174/4 122/172/4 121/171/4
f 125/176/8 127/179/8 128/180/8 126/177/8
f 100/138/2 98/136/2 126/178/2 128/180/2
f 99/137/4 100/138/4 128/180/4 127/179/4
